<svg width="1631" height="383" viewBox="0 0 1631 383" fill="none" xmlns="http://www.w3.org/2000/svg">
<path d="M1331.46 297.509V145.027H1359.53V117.912H1387.6V90.478H1428.44V117.912H1456.51V145.027H1484.9V297.509H1444.07V242.96H1371.97V297.509H1331.46ZM1371.97 199.257H1444.07V161.296H1415.99V134.181H1400.04V161.296H1371.97V199.257ZM1514.1 297.509V254.125H1542.17V134.181H1514.1V90.478H1611.07V134.181H1582.68V254.125H1611.07V297.509H1514.1Z" fill="url(#paint0_linear_2307_264)"/>
<g clip-path="url(#clip0_2307_264)">
<g clip-path="url(#clip1_2307_264)">
<path d="M149.012 165.994V113.975H71.018V165.994H149.012ZM19 295.937V88H174.987V113.975H200.962V165.994H174.987V191.969H200.962V295.937H149.013V191.969H71.019V295.937H19ZM370.006 217.943V191.968H292.012V217.943H370.006ZM265.971 295.937V269.962H239.996V191.968H265.971V165.993H395.981V191.968H421.956V243.987H292.012V269.962H395.981V295.937H265.971ZM460.99 295.937V165.994H616.971V191.969H642.946V295.937H590.997V191.969H564.953V295.937H538.981V191.969H513.006V295.937H460.99ZM811.996 269.962V191.968H734.002V269.962H811.996ZM707.955 295.937V269.962H681.981V191.968H707.956V165.993H837.971V191.968H863.946V269.962H837.971V295.937H707.955ZM954.993 295.937V269.962H928.949V191.968H902.971V165.993H928.946V87.999H980.971V165.993H1032.99V191.968H980.971V269.962H1032.99V295.937H954.993ZM1201.96 217.943V191.968H1123.97V217.943H1201.96ZM1097.92 295.937V269.962H1071.95V191.968H1097.92V165.993H1227.94V191.968H1253.91V243.987H1123.97V269.962H1227.94V295.937H1097.92ZM1396.91 295.937V88H1422.89V113.975H1448.93V139.95H1474.91V165.994H1500.88V191.969H1526.92V88H1578.87V295.937H1552.9V269.962H1526.92V243.988H1500.88V217.943H1474.9V191.968H1448.93V295.937H1396.91ZM1617.9 295.937V88H1799.87V113.975H1669.92V165.994H1747.92V191.969H1669.92V295.937H1617.9ZM1903.9 295.937V113.975H1838.9V88H2020.86V113.975H1955.92V295.937H1903.9Z" fill="url(#paint1_linear_2307_264)"/>
</g>
</g>
<defs>
<linearGradient id="paint0_linear_2307_264" x1="1471.5" y1="0" x2="1471.5" y2="383" gradientUnits="userSpaceOnUse">
<stop offset="0.216728" stop-color="#01F809"/>
<stop offset="0.521746" stop-color="#029B75"/>
<stop offset="0.787407" stop-color="#0438E7"/>
</linearGradient>
<linearGradient id="paint1_linear_2307_264" x1="1019.93" y1="87.999" x2="1019.93" y2="295.937" gradientUnits="userSpaceOnUse">
<stop stop-color="#00FF00"/>
<stop offset="1" stop-color="#042DF3"/>
</linearGradient>
<clipPath id="clip0_2307_264">
<rect width="1268" height="296" fill="white" transform="translate(19 44)"/>
</clipPath>
<clipPath id="clip1_2307_264">
<rect width="2001.86" height="207.937" fill="white" transform="translate(19 88)"/>
</clipPath>
</defs>
</svg>
